<svg width="336" height="29" viewBox="0 0 336 29" fill="none" xmlns="http://www.w3.org/2000/svg">
<path d="M6.66699 12.1172H9.52441C10.8851 12.1172 11.8932 11.777 12.5488 11.0967C13.2044 10.4163 13.5322 9.51335 13.5322 8.3877C13.5322 7.29915 13.2044 6.45182 12.5488 5.8457C11.9056 5.23958 11.015 4.93652 9.87695 4.93652C8.85026 4.93652 7.99056 5.22103 7.29785 5.79004C6.60514 6.34668 6.25879 7.0765 6.25879 7.97949H0.896484C0.896484 6.56934 1.27376 5.30762 2.02832 4.19434C2.79525 3.06868 3.85905 2.19043 5.21973 1.55957C6.59277 0.928711 8.10189 0.613281 9.74707 0.613281C12.6045 0.613281 14.8434 1.2998 16.4639 2.67285C18.0843 4.03353 18.8945 5.91374 18.8945 8.31348C18.8945 9.55046 18.5173 10.6885 17.7627 11.7275C17.0081 12.7666 16.0186 13.5645 14.7939 14.1211C16.3154 14.6654 17.4473 15.4818 18.1895 16.5703C18.944 17.6589 19.3213 18.9453 19.3213 20.4297C19.3213 22.8294 18.443 24.7529 16.6865 26.2002C14.9424 27.6475 12.6292 28.3711 9.74707 28.3711C7.05046 28.3711 4.84245 27.6598 3.12305 26.2373C1.41602 24.8148 0.5625 22.9346 0.5625 20.5967H5.9248C5.9248 21.611 6.30208 22.4398 7.05664 23.083C7.82357 23.7262 8.76367 24.0479 9.87695 24.0479C11.151 24.0479 12.1468 23.7139 12.8643 23.0459C13.5941 22.3656 13.959 21.4688 13.959 20.3555C13.959 17.6589 12.4746 16.3105 9.50586 16.3105H6.66699V12.1172ZM41.2158 16.8301C41.2158 20.5658 40.4427 23.4232 38.8965 25.4023C37.3503 27.3815 35.0866 28.3711 32.1055 28.3711C29.1615 28.3711 26.9102 27.4001 25.3516 25.458C23.793 23.516 22.9951 20.7327 22.958 17.1084V12.1357C22.958 8.36296 23.7373 5.49935 25.2959 3.54492C26.8669 1.59049 29.1243 0.613281 32.0684 0.613281C35.0124 0.613281 37.2637 1.58431 38.8223 3.52637C40.3809 5.45605 41.1787 8.23307 41.2158 11.8574V16.8301ZM35.8535 11.375C35.8535 9.13607 35.5443 7.50944 34.9258 6.49512C34.3197 5.46842 33.3672 4.95508 32.0684 4.95508C30.8066 4.95508 29.8727 5.44368 29.2666 6.4209C28.6729 7.38574 28.3574 8.90104 28.3203 10.9668V17.5352C28.3203 19.737 28.6172 21.376 29.2109 22.4521C29.8171 23.516 30.7819 24.0479 32.1055 24.0479C33.4167 24.0479 34.363 23.5345 34.9443 22.5078C35.5257 21.4811 35.8288 19.9102 35.8535 17.7949V11.375ZM44.7783 6.17969C44.7783 4.52214 45.3164 3.18001 46.3926 2.15332C47.4688 1.11426 48.8789 0.594727 50.623 0.594727C52.3919 0.594727 53.8145 1.10807 54.8906 2.13477C55.9668 3.14909 56.5049 4.52832 56.5049 6.27246V7.6084C56.5049 9.27832 55.9668 10.6204 54.8906 11.6348C53.8145 12.6491 52.4043 13.1562 50.6602 13.1562C48.9036 13.1562 47.4811 12.6491 46.3926 11.6348C45.3164 10.6081 44.7783 9.22884 44.7783 7.49707V6.17969ZM48.3408 7.6084C48.3408 8.35059 48.5511 8.95052 48.9717 9.4082C49.4046 9.85352 49.9674 10.0762 50.6602 10.0762C51.3529 10.0762 51.9033 9.84733 52.3115 9.38965C52.7197 8.93197 52.9238 8.31966 52.9238 7.55273V6.17969C52.9238 5.4375 52.7197 4.83757 52.3115 4.37988C51.9033 3.9222 51.3405 3.69336 50.623 3.69336C49.9427 3.69336 49.3923 3.9222 48.9717 4.37988C48.5511 4.8252 48.3408 5.44987 48.3408 6.25391V7.6084ZM57.6924 21.376C57.6924 19.7061 58.2367 18.3639 59.3252 17.3496C60.4137 16.3229 61.8239 15.8096 63.5557 15.8096C65.3122 15.8096 66.7285 16.3167 67.8047 17.3311C68.8932 18.333 69.4375 19.7184 69.4375 21.4873V22.8232C69.4375 24.4808 68.9056 25.8229 67.8418 26.8496C66.778 27.8639 65.3617 28.3711 63.5928 28.3711C61.8115 28.3711 60.3828 27.8577 59.3066 26.8311C58.2305 25.8044 57.6924 24.4437 57.6924 22.749V21.376ZM61.2549 22.8232C61.2549 23.5036 61.4775 24.085 61.9229 24.5674C62.3682 25.0498 62.9248 25.291 63.5928 25.291C65.1019 25.291 65.8564 24.4561 65.8564 22.7861V21.376C65.8564 20.6338 65.6462 20.04 65.2256 19.5947C64.805 19.137 64.2484 18.9082 63.5557 18.9082C62.863 18.9082 62.3063 19.137 61.8857 19.5947C61.4652 20.04 61.2549 20.6523 61.2549 21.4316V22.8232ZM51.7178 25.9775L49.1016 24.5674L62.2939 3.45215L64.9102 4.8623L51.7178 25.9775ZM105.137 15.1045C105.137 17.764 104.667 20.0957 103.727 22.0996C102.786 24.1035 101.438 25.6497 99.6816 26.7383C97.9375 27.8268 95.9336 28.3711 93.6699 28.3711C91.431 28.3711 89.4333 27.833 87.6768 26.7568C85.9202 25.6807 84.5596 24.1468 83.5947 22.1553C82.6299 20.1514 82.1413 17.8506 82.1289 15.2529V13.917C82.1289 11.2575 82.6051 8.9196 83.5576 6.90332C84.5225 4.87467 85.877 3.32227 87.6211 2.24609C89.3776 1.15755 91.3815 0.613281 93.6328 0.613281C95.8841 0.613281 97.8818 1.15755 99.626 2.24609C101.382 3.32227 102.737 4.87467 103.689 6.90332C104.654 8.9196 105.137 11.2513 105.137 13.8984V15.1045ZM99.4961 13.8799C99.4961 11.0472 98.9889 8.89486 97.9746 7.42285C96.9603 5.95085 95.513 5.21484 93.6328 5.21484C91.765 5.21484 90.3239 5.94466 89.3096 7.4043C88.2952 8.85156 87.7819 10.9792 87.7695 13.7871V15.1045C87.7695 17.863 88.2767 20.0029 89.291 21.5244C90.3053 23.0459 91.765 23.8066 93.6699 23.8066C95.5378 23.8066 96.9727 23.0768 97.9746 21.6172C98.9766 20.1452 99.4837 18.0052 99.4961 15.1973V13.8799ZM125.436 16.96H114.748V28H109.182V0.984375H126.771V5.49316H114.748V12.4697H125.436V16.96ZM146.254 16.96H135.566V28H130V0.984375H147.59V5.49316H135.566V12.4697H146.254V16.96ZM181.322 20.207L184.959 0.984375H190.507L184.514 28H178.91L174.513 9.92773L170.115 28H164.512L158.519 0.984375H164.066L167.722 20.1699L172.175 0.984375H176.888L181.322 20.207ZM199.45 28H193.884V0.984375H199.45V28ZM226.596 28H221.029L210.193 10.2246V28H204.627V0.984375H210.193L221.048 18.7969V0.984375H226.596V28ZM231.457 28V0.984375H239.77C242.145 0.984375 244.266 1.52246 246.134 2.59863C248.014 3.66243 249.48 5.18392 250.531 7.16309C251.583 9.12988 252.108 11.3688 252.108 13.8799V15.123C252.108 17.6341 251.589 19.8669 250.55 21.8213C249.523 23.7757 248.07 25.291 246.189 26.3672C244.309 27.4434 242.188 27.9876 239.825 28H231.457ZM237.023 5.49316V23.5283H239.714C241.891 23.5283 243.555 22.8171 244.705 21.3945C245.855 19.972 246.443 17.9372 246.468 15.29V13.8613C246.468 11.1152 245.899 9.03711 244.761 7.62695C243.623 6.20443 241.959 5.49316 239.77 5.49316H237.023ZM278.363 15.1045C278.363 17.764 277.893 20.0957 276.953 22.0996C276.013 24.1035 274.665 25.6497 272.908 26.7383C271.164 27.8268 269.16 28.3711 266.896 28.3711C264.658 28.3711 262.66 27.833 260.903 26.7568C259.147 25.6807 257.786 24.1468 256.821 22.1553C255.856 20.1514 255.368 17.8506 255.355 15.2529V13.917C255.355 11.2575 255.832 8.9196 256.784 6.90332C257.749 4.87467 259.104 3.32227 260.848 2.24609C262.604 1.15755 264.608 0.613281 266.859 0.613281C269.111 0.613281 271.108 1.15755 272.853 2.24609C274.609 3.32227 275.964 4.87467 276.916 6.90332C277.881 8.9196 278.363 11.2513 278.363 13.8984V15.1045ZM272.723 13.8799C272.723 11.0472 272.215 8.89486 271.201 7.42285C270.187 5.95085 268.74 5.21484 266.859 5.21484C264.992 5.21484 263.55 5.94466 262.536 7.4043C261.522 8.85156 261.008 10.9792 260.996 13.7871V15.1045C260.996 17.863 261.503 20.0029 262.518 21.5244C263.532 23.0459 264.992 23.8066 266.896 23.8066C268.764 23.8066 270.199 23.0768 271.201 21.6172C272.203 20.1452 272.71 18.0052 272.723 15.1973V13.8799ZM303.449 20.207L307.086 0.984375H312.634L306.641 28H301.037L296.64 9.92773L292.242 28H286.639L280.646 0.984375H286.193L289.849 20.1699L294.302 0.984375H299.015L303.449 20.207ZM329.667 20.9121C329.667 19.8607 329.296 19.0566 328.554 18.5C327.812 17.931 326.476 17.3372 324.546 16.7188C322.616 16.0879 321.089 15.4694 319.963 14.8633C316.895 13.2057 315.361 10.973 315.361 8.16504C315.361 6.7054 315.77 5.40658 316.586 4.26855C317.415 3.11816 318.596 2.22135 320.13 1.57812C321.676 0.934896 323.408 0.613281 325.325 0.613281C327.255 0.613281 328.974 0.96582 330.483 1.6709C331.993 2.36361 333.161 3.34701 333.99 4.62109C334.831 5.89518 335.252 7.34245 335.252 8.96289H329.686C329.686 7.72591 329.296 6.76725 328.517 6.08691C327.737 5.39421 326.643 5.04785 325.232 5.04785C323.872 5.04785 322.814 5.33854 322.06 5.91992C321.305 6.48893 320.928 7.24349 320.928 8.18359C320.928 9.06185 321.367 9.79785 322.245 10.3916C323.136 10.9854 324.441 11.542 326.16 12.0615C329.327 13.014 331.634 14.1953 333.081 15.6055C334.528 17.0156 335.252 18.7721 335.252 20.875C335.252 23.2129 334.368 25.0498 332.599 26.3857C330.83 27.7093 328.449 28.3711 325.455 28.3711C323.377 28.3711 321.484 27.9938 319.777 27.2393C318.07 26.4723 316.765 25.4271 315.862 24.1035C314.972 22.7799 314.526 21.2461 314.526 19.502H320.111C320.111 22.4831 321.893 23.9736 325.455 23.9736C326.779 23.9736 327.812 23.7077 328.554 23.1758C329.296 22.6315 329.667 21.877 329.667 20.9121Z" fill="white"/>
</svg>
