<svg width="771" height="131" viewBox="0 0 771 131" fill="none" xmlns="http://www.w3.org/2000/svg">
<path d="M55.0995 53.7044L35.7723 73.0328L45.9293 83.1895L65.2585 63.8611L79.492 78.0941L60.1629 97.4225L74.3794 111.638L110.459 75.5606L55.5911 20.6971L38.8428 37.4465L55.0995 53.7044ZM41.9834 75.2903C41.8321 75.1523 41.73 75.0558 41.6733 74.9991C41.1817 74.5075 40.8811 73.9706 40.7714 73.392C40.6107 72.5431 40.8848 71.7282 41.5901 70.9474L42.8077 72.165C42.5695 72.441 42.4939 72.7322 42.5827 73.0385C42.63 73.2049 42.7018 73.3448 42.7983 73.462C42.9174 73.5943 43.1008 73.7891 43.3485 74.05L41.9834 75.2903ZM43.1537 71.8266L41.9323 70.6052C42.4371 70.1136 42.9873 69.8262 43.5829 69.7449C44.3884 69.6296 45.0974 69.8773 45.7119 70.4917C46.3377 71.1176 46.6989 71.9835 46.7934 73.0858C46.852 73.8156 46.8237 74.6607 46.7046 75.6193L44.9613 77.3625L44.9745 77.2074C45.1352 75.5001 45.2128 74.5227 45.209 74.275C45.1938 73.15 44.9481 72.3503 44.4716 71.8738C44.0216 71.4257 43.5829 71.4106 43.1537 71.8266ZM45.935 79.3855L44.7684 78.2189L49.0926 73.895L50.2592 75.0615L45.935 79.3855ZM49.484 73.3353L48.2625 72.1139L47.2094 65.4682L48.5726 64.105L49.6201 70.9625L50.7999 69.7827L51.9192 70.902L49.484 73.3353ZM53.5226 71.7982L49.6541 67.9299L49.1833 64.9048L52.4316 68.153L53.2863 67.2984L54.4056 68.4177L53.551 69.2723L54.8007 70.522L53.5226 71.7982Z" fill="#0D2750"/>
<path d="M57.4591 98.7951L57.461 98.7932L56.0883 97.4206L75.4156 78.0941L65.2585 67.9374L45.9312 87.2639L32.6865 74.0235L31.6977 73.0309L51.0249 53.7044L36.8046 39.4828L0.725342 75.5606L55.5911 130.426L72.3412 113.677L57.4591 98.7951Z" fill="#0D2750"/>
<path d="M744.606 58.7663H687.127C685.69 58.7663 684.514 57.2547 684.514 55.4073C684.514 53.5598 685.69 52.0482 687.127 52.0482H744.606C746.043 52.0482 747.219 53.5598 747.219 55.4073C747.219 57.2547 746.043 58.7663 744.606 58.7663ZM744.606 78.9206H687.127C685.69 78.9206 684.514 77.4091 684.514 75.5616C684.514 73.7141 685.69 72.2025 687.127 72.2025H744.606C746.043 72.2025 747.219 73.7141 747.219 75.5616C747.219 77.4091 746.043 78.9206 744.606 78.9206ZM744.606 99.075H687.127C685.69 99.075 684.514 97.5634 684.514 95.7159C684.514 93.8684 685.69 92.3568 687.127 92.3568H744.606C746.043 92.3568 747.219 93.8684 747.219 95.7159C747.219 97.5634 746.043 99.075 744.606 99.075Z" fill="#0D2750"/>
</svg>
