<svg width="284" height="28" viewBox="0 0 284 28" fill="none" xmlns="http://www.w3.org/2000/svg">
<path d="M10.8525 13.3672H2.23242V22H0.670898V3.51562H12.1221V4.84863H2.23242V12.0342H10.8525V13.3672ZM20.958 9.55859C20.6364 9.49935 20.2936 9.46973 19.9297 9.46973C18.9818 9.46973 18.1777 9.73633 17.5176 10.2695C16.8659 10.7943 16.4004 11.5602 16.1211 12.5674V22H14.6104V8.26367H16.0957L16.1211 10.4473C16.9251 8.82227 18.2158 8.00977 19.9932 8.00977C20.4163 8.00977 20.7507 8.06478 20.9961 8.1748L20.958 9.55859ZM28.4355 22.2539C27.2676 22.2539 26.2096 21.9661 25.2617 21.3906C24.3223 20.8151 23.5902 20.0153 23.0654 18.9912C22.5407 17.9587 22.2783 16.8034 22.2783 15.5254V14.9795C22.2783 13.6592 22.5322 12.4701 23.04 11.4121C23.5563 10.3542 24.2715 9.52474 25.1855 8.92383C26.0996 8.31445 27.0898 8.00977 28.1562 8.00977C29.8236 8.00977 31.1439 8.58105 32.1172 9.72363C33.099 10.8577 33.5898 12.4108 33.5898 14.3828V15.2334H23.7891V15.5254C23.7891 17.0827 24.2334 18.3818 25.1221 19.4229C26.0192 20.4554 27.1449 20.9717 28.499 20.9717C29.3115 20.9717 30.0267 20.8236 30.6445 20.5273C31.2708 20.2311 31.8379 19.7572 32.3457 19.1055L33.2979 19.8291C32.1807 21.4456 30.5599 22.2539 28.4355 22.2539ZM28.1562 9.30469C27.0137 9.30469 26.0488 9.72363 25.2617 10.5615C24.4831 11.3994 24.0091 12.5251 23.8398 13.9385H32.0791V13.7734C32.0368 12.4531 31.6602 11.3783 30.9492 10.5488C30.2383 9.7194 29.3073 9.30469 28.1562 9.30469ZM41.8672 22.2539C40.6992 22.2539 39.6413 21.9661 38.6934 21.3906C37.7539 20.8151 37.0218 20.0153 36.4971 18.9912C35.9723 17.9587 35.71 16.8034 35.71 15.5254V14.9795C35.71 13.6592 35.9639 12.4701 36.4717 11.4121C36.988 10.3542 37.7031 9.52474 38.6172 8.92383C39.5312 8.31445 40.5215 8.00977 41.5879 8.00977C43.2552 8.00977 44.5755 8.58105 45.5488 9.72363C46.5306 10.8577 47.0215 12.4108 47.0215 14.3828V15.2334H37.2207V15.5254C37.2207 17.0827 37.665 18.3818 38.5537 19.4229C39.4508 20.4554 40.5765 20.9717 41.9307 20.9717C42.7432 20.9717 43.4583 20.8236 44.0762 20.5273C44.7025 20.2311 45.2695 19.7572 45.7773 19.1055L46.7295 19.8291C45.6123 21.4456 43.9915 22.2539 41.8672 22.2539ZM41.5879 9.30469C40.4453 9.30469 39.4805 9.72363 38.6934 10.5615C37.9147 11.3994 37.4408 12.5251 37.2715 13.9385H45.5107V13.7734C45.4684 12.4531 45.0918 11.3783 44.3809 10.5488C43.6699 9.7194 42.7389 9.30469 41.5879 9.30469ZM64.5283 18.5088C64.5283 17.7555 64.2236 17.1504 63.6143 16.6934C63.0133 16.2363 62.1035 15.8809 60.8848 15.627C59.666 15.3646 58.7181 15.0684 58.041 14.7383C57.3724 14.3997 56.873 13.9893 56.543 13.5068C56.2214 13.0244 56.0605 12.4404 56.0605 11.7549C56.0605 10.6715 56.5133 9.77865 57.4189 9.07617C58.3245 8.36523 59.484 8.00977 60.8975 8.00977C62.4294 8.00977 63.6566 8.39062 64.5791 9.15234C65.5101 9.9056 65.9756 10.8916 65.9756 12.1104H64.4521C64.4521 11.3063 64.1136 10.6377 63.4365 10.1045C62.7679 9.57129 61.9215 9.30469 60.8975 9.30469C59.8988 9.30469 59.0947 9.52897 58.4854 9.97754C57.8844 10.4176 57.584 10.9932 57.584 11.7041C57.584 12.3896 57.8337 12.9229 58.333 13.3037C58.8408 13.6761 59.7591 14.0189 61.0879 14.332C62.4251 14.6452 63.4238 14.9795 64.084 15.335C64.7526 15.6904 65.2477 16.1178 65.5693 16.6172C65.891 17.1165 66.0518 17.7217 66.0518 18.4326C66.0518 19.5921 65.582 20.5189 64.6426 21.2129C63.7116 21.9069 62.4928 22.2539 60.9863 22.2539C59.3867 22.2539 58.0876 21.8688 57.0889 21.0986C56.0986 20.32 55.6035 19.3382 55.6035 18.1533H57.127C57.1862 19.042 57.5586 19.736 58.2441 20.2354C58.9382 20.7262 59.8522 20.9717 60.9863 20.9717C62.0443 20.9717 62.8991 20.7389 63.5508 20.2734C64.2025 19.8079 64.5283 19.2197 64.5283 18.5088ZM70.9902 10.5869C71.4896 9.76595 72.1286 9.13118 72.9072 8.68262C73.6859 8.23405 74.5365 8.00977 75.459 8.00977C76.9316 8.00977 78.0277 8.42448 78.7471 9.25391C79.4665 10.0833 79.8304 11.3275 79.8389 12.9863V22H78.3281V12.9736C78.3197 11.7464 78.0573 10.8324 77.541 10.2314C77.0332 9.63053 76.2165 9.33008 75.0908 9.33008C74.1514 9.33008 73.3177 9.6263 72.5898 10.2188C71.8704 10.8027 71.3372 11.5941 70.9902 12.5928V22H69.4795V2.5H70.9902V10.5869ZM85.4502 22H83.9268V8.26367H85.4502V22ZM83.6602 4.29004C83.6602 4.00228 83.7533 3.76107 83.9395 3.56641C84.1257 3.36328 84.3796 3.26172 84.7012 3.26172C85.0228 3.26172 85.2767 3.36328 85.4629 3.56641C85.6576 3.76107 85.7549 4.00228 85.7549 4.29004C85.7549 4.5778 85.6576 4.81901 85.4629 5.01367C85.2767 5.20833 85.0228 5.30566 84.7012 5.30566C84.3796 5.30566 84.1257 5.20833 83.9395 5.01367C83.7533 4.81901 83.6602 4.5778 83.6602 4.29004ZM100.634 15.2715C100.634 17.4128 100.16 19.1139 99.2119 20.375C98.264 21.6276 96.9945 22.2539 95.4033 22.2539C93.5244 22.2539 92.0856 21.5938 91.0869 20.2734V27.2812H89.5762V8.26367H90.9854L91.0615 10.2061C92.0518 8.74186 93.4863 8.00977 95.3652 8.00977C97.0072 8.00977 98.2936 8.63184 99.2246 9.87598C100.164 11.1201 100.634 12.8467 100.634 15.0557V15.2715ZM99.1104 15.0049C99.1104 13.2529 98.7507 11.8691 98.0312 10.8535C97.3118 9.83789 96.3089 9.33008 95.0225 9.33008C94.0915 9.33008 93.2917 9.55436 92.623 10.0029C91.9544 10.4515 91.4424 11.1032 91.0869 11.958V18.5469C91.4508 19.334 91.9714 19.9349 92.6484 20.3496C93.3255 20.7643 94.1253 20.9717 95.0479 20.9717C96.3258 20.9717 97.3203 20.4639 98.0312 19.4482C98.7507 18.4242 99.1104 16.943 99.1104 15.0049ZM115.056 15.2715C115.056 17.4128 114.582 19.1139 113.634 20.375C112.686 21.6276 111.416 22.2539 109.825 22.2539C107.946 22.2539 106.507 21.5938 105.509 20.2734V27.2812H103.998V8.26367H105.407L105.483 10.2061C106.474 8.74186 107.908 8.00977 109.787 8.00977C111.429 8.00977 112.715 8.63184 113.646 9.87598C114.586 11.1201 115.056 12.8467 115.056 15.0557V15.2715ZM113.532 15.0049C113.532 13.2529 113.173 11.8691 112.453 10.8535C111.734 9.83789 110.731 9.33008 109.444 9.33008C108.513 9.33008 107.714 9.55436 107.045 10.0029C106.376 10.4515 105.864 11.1032 105.509 11.958V18.5469C105.873 19.334 106.393 19.9349 107.07 20.3496C107.747 20.7643 108.547 20.9717 109.47 20.9717C110.748 20.9717 111.742 20.4639 112.453 19.4482C113.173 18.4242 113.532 16.943 113.532 15.0049ZM120.134 22H118.61V8.26367H120.134V22ZM118.344 4.29004C118.344 4.00228 118.437 3.76107 118.623 3.56641C118.809 3.36328 119.063 3.26172 119.385 3.26172C119.706 3.26172 119.96 3.36328 120.146 3.56641C120.341 3.76107 120.438 4.00228 120.438 4.29004C120.438 4.5778 120.341 4.81901 120.146 5.01367C119.96 5.20833 119.706 5.30566 119.385 5.30566C119.063 5.30566 118.809 5.20833 118.623 5.01367C118.437 4.81901 118.344 4.5778 118.344 4.29004ZM125.72 8.26367L125.771 10.6123C126.287 9.76595 126.93 9.12272 127.7 8.68262C128.47 8.23405 129.321 8.00977 130.252 8.00977C131.725 8.00977 132.821 8.42448 133.54 9.25391C134.259 10.0833 134.623 11.3275 134.632 12.9863V22H133.121V12.9736C133.113 11.7464 132.85 10.8324 132.334 10.2314C131.826 9.63053 131.009 9.33008 129.884 9.33008C128.944 9.33008 128.111 9.6263 127.383 10.2188C126.663 10.8027 126.13 11.5941 125.783 12.5928V22H124.272V8.26367H125.72ZM137.958 15.0049C137.958 12.8551 138.432 11.154 139.38 9.90137C140.336 8.6403 141.631 8.00977 143.265 8.00977C145.135 8.00977 146.557 8.75456 147.53 10.2441L147.606 8.26367H149.028V21.7207C149.028 23.4896 148.533 24.8903 147.543 25.9229C146.553 26.9554 145.211 27.4717 143.519 27.4717C142.562 27.4717 141.648 27.2559 140.776 26.8242C139.913 26.401 139.232 25.834 138.732 25.123L139.583 24.209C140.658 25.5293 141.936 26.1895 143.417 26.1895C144.687 26.1895 145.677 25.8128 146.388 25.0596C147.099 24.3148 147.467 23.278 147.492 21.9492V20.2227C146.519 21.5768 145.101 22.2539 143.239 22.2539C141.648 22.2539 140.37 21.6191 139.405 20.3496C138.44 19.0801 137.958 17.3662 137.958 15.208V15.0049ZM139.494 15.2715C139.494 17.0234 139.845 18.4072 140.548 19.4229C141.25 20.43 142.241 20.9336 143.519 20.9336C145.389 20.9336 146.714 20.0957 147.492 18.4199V12.0342C147.137 11.154 146.625 10.4854 145.956 10.0283C145.287 9.56283 144.483 9.33008 143.544 9.33008C142.266 9.33008 141.271 9.83366 140.561 10.8408C139.85 11.8395 139.494 13.3164 139.494 15.2715ZM158.474 14.9287C158.474 13.6084 158.728 12.4193 159.235 11.3613C159.752 10.3034 160.475 9.48242 161.406 8.89844C162.346 8.30599 163.408 8.00977 164.593 8.00977C166.421 8.00977 167.902 8.65299 169.036 9.93945C170.17 11.2174 170.737 12.9144 170.737 15.0303V15.3477C170.737 16.6764 170.479 17.874 169.963 18.9404C169.455 19.9984 168.736 20.8151 167.805 21.3906C166.874 21.9661 165.812 22.2539 164.618 22.2539C162.799 22.2539 161.317 21.6149 160.175 20.3369C159.041 19.0505 158.474 17.3493 158.474 15.2334V14.9287ZM159.997 15.3477C159.997 16.9896 160.42 18.3395 161.267 19.3975C162.121 20.4469 163.239 20.9717 164.618 20.9717C165.989 20.9717 167.098 20.4469 167.944 19.3975C168.799 18.3395 169.227 16.9473 169.227 15.2207V14.9287C169.227 13.8792 169.032 12.9186 168.643 12.0469C168.253 11.1751 167.707 10.5023 167.005 10.0283C166.302 9.5459 165.498 9.30469 164.593 9.30469C163.239 9.30469 162.134 9.83789 161.279 10.9043C160.424 11.9622 159.997 13.3503 159.997 15.0684V15.3477ZM177.961 19.9053L182.138 8.26367H183.699L178.57 22H177.339L172.185 8.26367H173.746L177.961 19.9053ZM191.342 22.2539C190.174 22.2539 189.116 21.9661 188.168 21.3906C187.229 20.8151 186.496 20.0153 185.972 18.9912C185.447 17.9587 185.185 16.8034 185.185 15.5254V14.9795C185.185 13.6592 185.438 12.4701 185.946 11.4121C186.463 10.3542 187.178 9.52474 188.092 8.92383C189.006 8.31445 189.996 8.00977 191.062 8.00977C192.73 8.00977 194.05 8.58105 195.023 9.72363C196.005 10.8577 196.496 12.4108 196.496 14.3828V15.2334H186.695V15.5254C186.695 17.0827 187.14 18.3818 188.028 19.4229C188.925 20.4554 190.051 20.9717 191.405 20.9717C192.218 20.9717 192.933 20.8236 193.551 20.5273C194.177 20.2311 194.744 19.7572 195.252 19.1055L196.204 19.8291C195.087 21.4456 193.466 22.2539 191.342 22.2539ZM191.062 9.30469C189.92 9.30469 188.955 9.72363 188.168 10.5615C187.389 11.3994 186.915 12.5251 186.746 13.9385H194.985V13.7734C194.943 12.4531 194.566 11.3783 193.855 10.5488C193.145 9.7194 192.214 9.30469 191.062 9.30469ZM205.802 9.55859C205.48 9.49935 205.137 9.46973 204.773 9.46973C203.826 9.46973 203.021 9.73633 202.361 10.2695C201.71 10.7943 201.244 11.5602 200.965 12.5674V22H199.454V8.26367H200.939L200.965 10.4473C201.769 8.82227 203.06 8.00977 204.837 8.00977C205.26 8.00977 205.594 8.06478 205.84 8.1748L205.802 9.55859ZM223.994 17.4424C223.994 16.5029 223.689 15.737 223.08 15.1445C222.471 14.5436 221.396 13.9766 219.855 13.4434C217.943 12.8424 216.601 12.1315 215.831 11.3105C215.061 10.4811 214.676 9.41048 214.676 8.09863C214.676 6.71908 215.099 5.60189 215.945 4.74707C216.792 3.88379 217.943 3.3929 219.398 3.27441V0.709961H220.693V3.27441C222.183 3.40983 223.334 3.96842 224.146 4.9502C224.967 5.93197 225.378 7.26497 225.378 8.94922H223.867C223.867 7.62044 223.52 6.56673 222.826 5.78809C222.141 5.00098 221.201 4.60742 220.008 4.60742C218.806 4.60742 217.867 4.9248 217.189 5.55957C216.521 6.18587 216.187 7.02376 216.187 8.07324C216.187 9.08887 216.495 9.88444 217.113 10.46C217.731 11.027 218.781 11.5645 220.262 12.0723C221.751 12.5716 222.83 13.054 223.499 13.5195C224.176 13.9766 224.68 14.5225 225.01 15.1572C225.348 15.7835 225.518 16.5368 225.518 17.417C225.518 18.805 225.082 19.9264 224.21 20.7812C223.347 21.6276 222.158 22.11 220.643 22.2285V24.6406H219.36V22.2412C217.659 22.1312 216.343 21.598 215.412 20.6416C214.481 19.6768 214.016 18.3607 214.016 16.6934H215.539C215.539 18.0137 215.924 19.0505 216.694 19.8037C217.465 20.5485 218.539 20.9209 219.919 20.9209C221.121 20.9209 222.098 20.5993 222.852 19.9561C223.613 19.3128 223.994 18.4749 223.994 17.4424ZM240.295 22H228.717V20.832L235.052 13.6465C236.101 12.4362 236.829 11.4375 237.235 10.6504C237.642 9.86328 237.845 9.09733 237.845 8.35254C237.845 7.18457 237.502 6.26204 236.816 5.58496C236.131 4.89941 235.187 4.55664 233.985 4.55664C232.741 4.55664 231.734 4.95443 230.964 5.75C230.202 6.54557 229.821 7.57812 229.821 8.84766H228.311C228.311 7.80664 228.543 6.85872 229.009 6.00391C229.483 5.14909 230.151 4.48047 231.015 3.99805C231.886 3.50716 232.877 3.26172 233.985 3.26172C235.678 3.26172 236.998 3.70605 237.946 4.59473C238.903 5.4834 239.381 6.69368 239.381 8.22559C239.381 9.08887 239.11 10.0326 238.568 11.0566C238.035 12.0807 237.091 13.3587 235.737 14.8906L230.583 20.7178H240.295V22ZM254.285 14.2939C254.285 16.9007 253.807 18.8812 252.851 20.2354C251.894 21.5811 250.485 22.2539 248.623 22.2539C246.795 22.2539 245.394 21.5938 244.421 20.2734C243.448 18.9447 242.948 17.015 242.923 14.4844V11.1709C242.923 8.57259 243.405 6.60482 244.37 5.26758C245.335 3.93034 246.744 3.26172 248.598 3.26172C250.426 3.26172 251.822 3.90918 252.787 5.2041C253.752 6.49056 254.251 8.39062 254.285 10.9043V14.2939ZM252.762 10.9805C252.762 8.86458 252.415 7.26497 251.721 6.18164C251.035 5.09831 249.994 4.55664 248.598 4.55664C247.227 4.55664 246.194 5.08561 245.5 6.14355C244.806 7.2015 244.451 8.76302 244.434 10.8281V14.459C244.434 16.5664 244.789 18.1787 245.5 19.2959C246.219 20.4131 247.26 20.9717 248.623 20.9717C249.977 20.9717 251.001 20.4258 251.695 19.334C252.398 18.2422 252.753 16.6426 252.762 14.5352V10.9805ZM268.707 14.2939C268.707 16.9007 268.229 18.8812 267.272 20.2354C266.316 21.5811 264.907 22.2539 263.045 22.2539C261.217 22.2539 259.816 21.5938 258.843 20.2734C257.869 18.9447 257.37 17.015 257.345 14.4844V11.1709C257.345 8.57259 257.827 6.60482 258.792 5.26758C259.757 3.93034 261.166 3.26172 263.02 3.26172C264.848 3.26172 266.244 3.90918 267.209 5.2041C268.174 6.49056 268.673 8.39062 268.707 10.9043V14.2939ZM267.184 10.9805C267.184 8.86458 266.837 7.26497 266.143 6.18164C265.457 5.09831 264.416 4.55664 263.02 4.55664C261.648 4.55664 260.616 5.08561 259.922 6.14355C259.228 7.2015 258.872 8.76302 258.855 10.8281V14.459C258.855 16.5664 259.211 18.1787 259.922 19.2959C260.641 20.4131 261.682 20.9717 263.045 20.9717C264.399 20.9717 265.423 20.4258 266.117 19.334C266.82 18.2422 267.175 16.6426 267.184 14.5352V10.9805ZM283.129 14.2939C283.129 16.9007 282.651 18.8812 281.694 20.2354C280.738 21.5811 279.329 22.2539 277.467 22.2539C275.639 22.2539 274.238 21.5938 273.265 20.2734C272.291 18.9447 271.792 17.015 271.767 14.4844V11.1709C271.767 8.57259 272.249 6.60482 273.214 5.26758C274.179 3.93034 275.588 3.26172 277.441 3.26172C279.27 3.26172 280.666 3.90918 281.631 5.2041C282.596 6.49056 283.095 8.39062 283.129 10.9043V14.2939ZM281.605 10.9805C281.605 8.86458 281.258 7.26497 280.564 6.18164C279.879 5.09831 278.838 4.55664 277.441 4.55664C276.07 4.55664 275.038 5.08561 274.344 6.14355C273.65 7.2015 273.294 8.76302 273.277 10.8281V14.459C273.277 16.5664 273.633 18.1787 274.344 19.2959C275.063 20.4131 276.104 20.9717 277.467 20.9717C278.821 20.9717 279.845 20.4258 280.539 19.334C281.242 18.2422 281.597 16.6426 281.605 14.5352V10.9805Z" fill="#0D2750"/>
</svg>
